<svg width="16" height="20" viewBox="0 0 16 20" fill="none" xmlns="http://www.w3.org/2000/svg">
<path d="M7.99981 18.3337C7.99981 18.3337 1.33314 14.5837 1.33314 8.50033C1.3109 7.61092 1.4669 6.72606 1.79196 5.89789C2.11702 5.06972 2.60456 4.31498 3.22584 3.67817C3.84713 3.04135 4.58959 2.53533 5.40949 2.18992C6.22939 1.84452 7.11012 1.66671 7.99981 1.66699C8.88949 1.66671 9.77023 1.84452 10.5901 2.18992C11.41 2.53533 12.1525 3.04135 12.7738 3.67817C13.3951 4.31498 13.8826 5.06972 14.2077 5.89789C14.5327 6.72606 14.6887 7.61092 14.6665 8.50033C14.6665 14.5837 7.99981 18.3337 7.99981 18.3337Z" stroke="#FF2929" stroke-width="1.5" stroke-linecap="round" stroke-linejoin="round"/>
</svg>
